<?xml version="1.0" standalone="no"?>
<!DOCTYPE svg PUBLIC "-//W3C//DTD SVG 20010904//EN"
 "http://www.w3.org/TR/2001/REC-SVG-20010904/DTD/svg10.dtd">
<svg version="1.0" xmlns="http://www.w3.org/2000/svg"
 width="32.000000pt" height="32.000000pt" viewBox="0 0 32.000000 32.000000"
 preserveAspectRatio="xMidYMid meet">

<g transform="translate(0.000000,32.000000) scale(0.100000,-0.100000)"
fill="#000000" stroke="none">
<path d="M120 311 c-20 -6 -24 -12 -22 -35 5 -37 -14 -56 -53 -56 -29 0 -33
-4 -37 -29 l-4 -30 58 41 c83 59 115 59 196 1 l64 -45 -4 28 c-3 26 -8 30 -43
34 -38 5 -40 7 -45 45 -4 31 -10 41 -30 46 -32 9 -49 9 -80 0z m70 -25 c0 -7
-7 -19 -16 -26 -12 -11 -18 -11 -31 2 -8 9 -12 21 -9 27 10 16 56 14 56 -3z"/>
<path d="M206 163 c13 -27 24 -54 24 -60 0 -12 30 -19 30 -8 0 3 -12 23 -26
45 -39 59 -23 59 20 0 20 -27 41 -50 47 -50 6 0 -3 17 -19 38 -35 43 -72 78
-72 67 0 -4 -6 -2 -14 4 -7 6 -3 -10 10 -36z"/>
<path d="M55 145 c-25 -30 -41 -55 -33 -55 11 1 96 110 85 110 -3 0 -26 -25
-52 -55z"/>
<path d="M32 159 c-19 -17 -32 -32 -30 -35 3 -2 20 12 38 31 42 43 37 45 -8 4z"/>
<path d="M279 157 c36 -39 41 -42 41 -29 0 4 -17 20 -38 36 l-37 29 34 -36z"/>
<path d="M99 158 c-7 -12 -19 -33 -27 -45 -13 -20 -12 -23 0 -23 8 0 22 19 31
42 18 46 16 63 -4 26z"/>
<path d="M114 118 c-21 -70 -23 -100 -8 -105 10 -3 39 155 31 164 -2 2 -12
-25 -23 -59z"/>
<path d="M157 163 c-3 -10 -9 -51 -12 -91 -7 -69 -6 -72 15 -72 21 0 22 2 15
87 -8 95 -10 105 -18 76z"/>
<path d="M185 155 c2 -16 7 -52 11 -80 8 -65 20 -88 30 -61 4 11 -3 48 -19 95
-15 42 -25 63 -22 46z"/>
</g>
</svg>
